HIERARCHY
ROOT Hips
{
 OFFSET 0.000000 0.000000 0.000000
 CHANNELS 6 Xposition Yposition Zposition Yrotation Xrotation Zrotation
 JOINT Chest
 {
  OFFSET 0.000000 9.588913 -0.003946
  CHANNELS 3 Yrotation Xrotation Zrotation
  JOINT Chest2
  {
   OFFSET 0.000000 9.541882 0.008053
   CHANNELS 3 Yrotation Xrotation Zrotation
   JOINT Chest3
   {
    OFFSET 0.000000 9.501360 0.000000
    CHANNELS 3 Yrotation Xrotation Zrotation
    JOINT Chest4
    {
     OFFSET 0.000000 9.491660 0.000000
     CHANNELS 3 Yrotation Xrotation Zrotation
     JOINT Neck
     {
      OFFSET 0.000000 14.331917 0.000000
      CHANNELS 3 Yrotation Xrotation Zrotation
      JOINT Head
      {
       OFFSET 0.000000 8.884799 0.017034
       CHANNELS 3 Yrotation Xrotation Zrotation
       End Site
       {
        OFFSET 0.000000 16.896195 0.008993
       }
      }
     }
     JOINT RightCollar
     {
      OFFSET -2.923010 9.499495 0.000000
      CHANNELS 3 Yrotation Xrotation Zrotation
      JOINT RightShoulder
      {
       OFFSET -13.795216 0.000000 0.000000
       CHANNELS 3 Yrotation Xrotation Zrotation
       JOINT RightElbow
       {
        OFFSET -30.272209 0.000000 0.000000
        CHANNELS 3 Yrotation Xrotation Zrotation
        JOINT RightWrist
        {
         OFFSET -24.478199 0.000000 0.000000
         CHANNELS 3 Yrotation Xrotation Zrotation
         End Site
         {
          OFFSET -18.090752 0.000000 0.000000
         }
        }
       }
      }
     }
     JOINT LeftCollar
     {
      OFFSET 2.923010 9.499495 0.000000
      CHANNELS 3 Yrotation Xrotation Zrotation
      JOINT LeftShoulder
      {
       OFFSET 13.795216 0.000000 0.000000
       CHANNELS 3 Yrotation Xrotation Zrotation
       JOINT LeftElbow
       {
        OFFSET 30.272209 0.000000 0.000000
        CHANNELS 3 Yrotation Xrotation Zrotation
        JOINT LeftWrist
        {
         OFFSET 24.478199 0.000000 0.000000
         CHANNELS 3 Yrotation Xrotation Zrotation
         End Site
         {
          OFFSET 18.090752 0.000000 0.000000
         }
        }
       }
      }
     }
    }
   }
  }
 }
 JOINT RightHip
 {
  OFFSET -7.826875 0.019532 0.001973
  CHANNELS 3 Yrotation Xrotation Zrotation
  JOINT RightKnee
  {
   OFFSET 0.000000 -40.546152 -0.001885
   CHANNELS 3 Yrotation Xrotation Zrotation
   JOINT RightAnkle
   {
    OFFSET 0.000000 -39.417092 -0.003189
    CHANNELS 3 Yrotation Xrotation Zrotation
    JOINT RightToe
    {
     OFFSET 0.000000 -7.579396 17.243563
     CHANNELS 3 Yrotation Xrotation Zrotation
     End Site
     {
      OFFSET 0.000000 -1.500329 6.694466
     }
    }
   }
  }
 }
 JOINT LeftHip
 {
  OFFSET 7.826875 0.019532 0.001973
  CHANNELS 3 Yrotation Xrotation Zrotation
  JOINT LeftKnee
  {
   OFFSET 0.000000 -40.546152 -0.001885
   CHANNELS 3 Yrotation Xrotation Zrotation
   JOINT LeftAnkle
   {
    OFFSET 0.000000 -39.417092 -0.003189
    CHANNELS 3 Yrotation Xrotation Zrotation
    JOINT LeftToe
    {
     OFFSET 0.000000 -7.579396 17.243563
     CHANNELS 3 Yrotation Xrotation Zrotation
     End Site
     {
      OFFSET 0.000000 -1.500329 6.694466
     }
    }
   }
  }
 }
}
MOTION
Frames: 8
Frame Time: 0.008333
-1.180968 89.124260 -13.407497 175.142383 -2.410131 -2.471036 9.575142 10.060552 -6.331520 5.704088 5.615556 -3.688295 7.081111 7.073804 -4.526661 5.704087 5.615555 -3.688297 -19.254540 22.396344 10.806803 -26.217196 1.990092 17.762577 14.010147 -14.292688 -10.625722 -14.899294 -13.447858 49.285504 11.217535 -10.313300 -3.664639 -2.748423 -3.820463 -0.904976 -4.315296 -3.020734 1.871516 23.888808 -2.085310 -80.001204 -15.722076 -13.637630 -16.915743 -2.996208 -3.570654 3.870052 -25.698879 9.855444 -0.076544 -2.451186 2.247524 -2.336155 -3.041276 -5.915806 6.942598 0.011047 -0.341280 -0.105493 -5.685602 -3.085145 3.522976 -7.250958 9.462942 -2.677063 -21.629990 -3.701716 0.287000 0.234940 0.405380 0.106993
-1.256296 89.134435 -13.476406 175.039465 -2.496965 -2.500881 9.571802 10.009435 -6.285833 5.697295 5.586965 -3.665372 7.073176 7.037672 -4.498484 5.697293 5.586964 -3.665374 -19.259968 22.345119 10.884185 -26.253443 1.942101 17.866863 13.876524 -14.244913 -10.411361 -15.361167 -12.985785 49.320730 12.781598 -9.590760 -3.165847 -0.416174 -3.233620 -0.450552 -4.297222 -2.995473 1.895189 23.902307 -2.004401 -79.968267 -15.669176 -13.565632 -16.902115 -2.976643 -3.561766 3.855527 -25.707074 9.887045 -0.193697 -2.478599 2.359206 -2.305071 -2.907755 -5.903742 7.031006 0.016313 -0.354333 -0.108263 -5.634667 -2.945459 3.488028 -7.239970 9.451638 -2.680761 -21.575653 -3.691835 0.354860 0.233783 0.395002 0.110178
-1.330991 89.145219 -13.547251 174.929904 -2.586300 -2.530669 9.564152 9.954377 -6.241158 5.688922 5.555281 -3.640376 7.063317 6.997629 -4.467783 5.688921 5.555280 -3.640378 -19.266671 22.294285 10.956473 -26.289744 1.893884 17.965062 13.750200 -14.197909 -10.192543 -15.800476 -12.523274 49.314834 14.274687 -8.825876 -2.695223 1.996698 -2.717305 0.065353 -4.277026 -2.970817 1.918945 23.909685 -1.912855 -79.941759 -15.590614 -13.515939 -16.873468 -2.969380 -3.559992 3.845284 -25.721430 9.919838 -0.311393 -2.502783 2.471129 -2.276688 -2.775759 -5.887554 7.119991 0.019667 -0.368188 -0.109822 -5.576354 -2.805720 3.452078 -7.224875 9.446850 -2.678935 -21.535246 -3.684325 0.421078 0.227377 0.382290 0.112178
-1.405448 89.156289 -13.619876 174.816333 -2.677950 -2.561273 9.552807 9.896037 -6.194803 5.678880 5.521152 -3.612815 7.051422 6.954479 -4.433930 5.678879 5.521151 -3.612817 -19.276290 22.242655 11.024801 -26.328820 1.844588 18.059206 13.631645 -14.152563 -9.979592 -16.198159 -12.051028 49.271222 15.697362 -8.048309 -2.245896 4.317920 -2.267706 0.564099 -4.255811 -2.948640 1.941972 23.916725 -1.810902 -79.927005 -15.489155 -13.478689 -16.824364 -2.966836 -3.562083 3.841415 -25.739122 9.952069 -0.428518 -2.521986 2.587852 -2.250852 -2.651550 -5.869597 7.209276 0.020943 -0.382537 -0.109924 -5.515377 -2.666569 3.413750 -7.210298 9.450037 -2.668910 -21.500350 -3.681862 0.484973 0.217828 0.368588 0.112435
-1.480051 89.167298 -13.693986 174.700503 -2.771691 -2.592871 9.537897 9.833241 -6.145670 5.666678 5.485617 -3.583148 7.036862 6.909522 -4.397496 5.666677 5.485616 -3.583150 -19.288578 22.189694 11.091136 -26.371034 1.793892 18.151791 13.521621 -14.113267 -9.777726 -16.540163 -11.554156 49.199983 17.059466 -7.281800 -1.817157 6.412067 -1.910148 1.007659 -4.232949 -2.926975 1.967538 23.930259 -1.704169 -79.927767 -15.365651 -13.442604 -16.753421 -2.962202 -3.563544 3.840921 -25.760071 9.983230 -0.546437 -2.535301 2.710282 -2.226640 -2.532357 -5.851240 7.299567 0.019880 -0.397082 -0.109383 -5.456430 -2.525820 3.372164 -7.199478 9.459436 -2.656554 -21.445084 -3.684780 0.550383 0.210928 0.355267 0.112332
-1.555279 89.177930 -13.769693 174.581557 -2.870425 -2.623762 9.520580 9.768244 -6.093176 5.652534 5.449739 -3.552043 7.019891 6.864099 -4.359296 5.652532 5.449738 -3.552045 -19.302800 22.134312 11.156536 -26.415780 1.740407 18.244012 13.421880 -14.089171 -9.596839 -16.825471 -11.010899 49.128090 18.365044 -6.566953 -1.418317 8.280768 -1.622042 1.355981 -4.210521 -2.905777 1.996181 23.954444 -1.596898 -79.941802 -15.222576 -13.400622 -16.661104 -2.947344 -3.559947 3.840570 -25.784026 10.013997 -0.668501 -2.546591 2.840862 -2.203860 -2.414484 -5.835767 7.392905 0.016857 -0.410551 -0.109987 -5.400634 -2.379386 3.327126 -7.193255 9.472232 -2.645688 -21.367072 -3.691869 0.618017 0.208010 0.342786 0.112757
-1.628625 89.188046 -13.846684 174.445306 -2.977328 -2.668847 9.519198 9.700889 -6.019475 5.636560 5.414294 -3.518897 7.000654 6.819172 -4.318563 5.636558 5.414293 -3.518899 -19.318675 22.075469 11.220765 -26.462627 1.682644 18.335534 13.328980 -14.077271 -9.444598 -17.053487 -10.418575 49.079809 19.622120 -5.922797 -1.042405 9.967252 -1.334147 1.510786 -4.194362 -2.886565 2.022186 23.993076 -1.489345 -79.967299 -15.065005 -13.350492 -16.545257 -2.917319 -3.548769 3.836618 -25.794302 10.053800 -0.780084 -2.559724 2.981622 -2.184210 -2.288512 -5.837388 7.491987 0.006441 -0.413062 -0.114690 -5.337520 -2.223852 3.294071 -7.184902 9.489082 -2.636195 -21.255295 -3.679299 0.691485 0.197864 0.307295 0.109463
-1.705795 89.197152 -13.924634 174.325019 -3.088549 -2.696455 9.495131 9.633843 -5.958833 5.617954 5.378838 -3.483898 6.978145 6.774184 -4.275551 5.617952 5.378837 -3.483900 -19.333822 22.015056 11.284636 -26.508478 1.622605 18.426561 13.239213 -14.061656 -9.312953 -17.231832 -9.796748 49.061207 20.842407 -5.321525 -0.682455 11.455655 -1.060748 1.399138 -4.185115 -2.869125 2.042123 24.048815 -1.383149 -79.997658 -14.891918 -13.290724 -16.410701 -2.873537 -3.532668 3.830717 -25.828229 10.084197 -0.911084 -2.570500 3.131180 -2.168043 -2.171297 -5.834573 7.590941 0.005909 -0.421737 -0.115490 -5.302054 -2.067090 3.244122 -7.171480 9.511367 -2.630601 -21.157014 -3.694802 0.763061 0.199174 0.297407 0.111270
